<svg width="66" height="66" viewBox="0 0 66 66" fill="none" xmlns="http://www.w3.org/2000/svg">
<rect width="66" height="66" rx="10" fill="#F6F8FF"/>
<path d="M39.9006 41.8111V36.3804H25.5518V41.8111L32.7262 48.0178L39.9006 41.8111Z" fill="#E6AF78" fill-opacity="0.56"/>
<path d="M50.9942 44.3517L41.1299 42.0928C40.9809 42.0587 40.8439 42.0008 40.7157 41.9306L32.7262 46.4664L25.0483 41.7112C24.8496 41.8933 24.6028 42.0286 24.3226 42.0929L14.4584 44.3518C13.018 44.6817 12 45.9325 12 47.3727V53.449C12 54.306 12.7138 55.0006 13.5943 55.0006H51.858C52.7386 55.0006 53.4523 54.3059 53.4523 53.449V47.3727C53.4525 45.9325 52.4345 44.6815 50.9942 44.3517Z" fill="#662113"/>
<path d="M25.5518 36.3805V42.1104C34.5896 45.2795 39.9006 37.348 39.9006 37.348V36.3804H25.5518V36.3805Z" fill="#D29B6E" fill-opacity="0.34"/>
<path d="M22.3643 18.5367L23.0589 33.4105C23.1237 34.8 23.8238 36.0886 24.9671 36.9231L28.2632 39.3291C29.0911 39.9333 30.0981 40.2601 31.133 40.2601H34.3217C35.3566 40.2601 36.3635 39.9334 37.1915 39.3291L40.4875 36.9231C41.6308 36.0885 42.3309 34.8001 42.3958 33.4105L43.0904 18.5367H22.3643Z" fill="#F7DECE"/>
<path d="M30.3359 21.6401C33.5246 21.6401 38.3075 20.8643 39.442 18.5367H22.3643L23.0589 33.4105C23.1237 34.8 23.8238 36.0885 24.9672 36.9231L28.2633 39.3291C29.0912 39.9333 30.0981 40.2601 31.1331 40.2601H32.7274C31.1331 40.2601 27.9444 37.1567 27.9444 33.2776C27.9444 31.3804 27.9444 26.2951 27.9444 23.9676C27.9444 23.1918 28.7415 21.6401 30.3359 21.6401Z" fill="#F2D4B7"/>
<path d="M17.8548 49.9636L12.6893 45.4475C12.2565 45.9809 12.0027 46.6522 12.0027 47.3708V53.4471C12.0027 54.3041 12.7165 54.9987 13.597 54.9987H19.1771V52.8494C19.177 51.7484 18.6963 50.6992 17.8548 49.9636Z" fill="#FEF7F5"/>
<path d="M47.6023 49.9636L52.7678 45.4475C53.2007 45.9809 53.4545 46.6522 53.4545 47.3708V53.4471C53.4545 54.3041 52.7407 54.9987 51.8602 54.9987H46.28V52.8494C46.28 51.7484 46.7607 50.6992 47.6023 49.9636Z" fill="#FEF7F5"/>
<path d="M25.4384 40.0849L32.7248 46.4672C32.7248 46.4672 30.6842 47.4698 28.1661 49.4905C27.6466 49.9073 26.8608 49.7385 26.5822 49.1419L23.1589 41.8123L24.2419 40.2314C24.5114 39.8376 25.0771 39.7685 25.4384 40.0849Z" fill="#FEF7F5"/>
<path d="M40.0113 40.0849L32.7249 46.4672C32.7249 46.4672 34.7655 47.4698 37.2836 49.4905C37.8031 49.9073 38.5888 49.7385 38.8674 49.1419L42.2907 41.8123L41.2078 40.2314C40.9382 39.8376 40.3725 39.7685 40.0113 40.0849Z" fill="#FEF7F5"/>
<path d="M37.5566 13.3971L38.3039 18.5371C41.7153 19.2011 42.207 24.4115 42.2778 25.8997C42.2906 26.1698 42.3792 26.4306 42.5297 26.6578L43.8313 28.6228C43.8313 28.6228 43.3858 25.374 45.4256 23.192C45.4256 23.192 46.1262 10.2938 37.5566 13.3971Z" fill="#404040"/>
<path d="M23.128 12.0066L24.3071 12.7905C18.9761 16.6212 19.9724 23.1915 19.9724 23.1915C21.5667 24.7432 21.5667 28.6224 21.5667 28.6224L23.161 27.0707C23.161 27.0707 22.5458 22.5884 25.5525 20.8641C28.3426 19.2639 30.7839 20.0882 33.275 20.0882C39.9512 20.0882 41.8196 17.6395 41.4957 14.6574C41.3281 13.1144 38.9041 9.90016 32.727 10.0024C30.2342 10.0436 25.5527 10.7782 23.128 12.0066Z" fill="#242424"/>
</svg>
